<svg width="15cm" height="15cm" viewbox="58 18 443 450" xmlns="http://www.w3.org/2000/svg" xmlns:xlink="http://www.w3.org/1999/xlink">
  <a xlink:href="improvement.html"><g>
    <rect style="fill: #e6e6fa" x="60" y="120" width="440" height="120" />
    <rect style="fill: none; fill-opacity:0; stroke-width: 2; stroke: #000000" x="60" y="120" width="440" height="120" />
    <text font-size="16.9333" style="fill: #000000;text-anchor:middle;font-family:sans-serif;font-style:normal;font-weight:700" x="280" y="182.117">
      <tspan x="280" y="182.117"></tspan>
    </text>
  </g></a>
  <a xlink:href="improvement.html"><g>
    <rect style="fill: none; fill-opacity:0; stroke-width: 2; stroke: #e6e6fa" x="200" y="140" width="158.15" height="40" />
    <text font-size="19.7556" style="fill: #000000;text-anchor:middle;font-family:sans-serif;font-style:normal;font-weight:700" x="279.075" y="162.453">
      <tspan x="279.075" y="162.453">Improvement</tspan>
    </text>
  </g></a>
  <a xlink:href="feature.html"><g>
    <rect style="fill: #bfbfbf" x="80" y="179.991" width="140" height="43.2231" />
    <rect style="fill: none; fill-opacity:0; stroke-width: 2; stroke: #000000" x="80" y="179.991" width="140" height="43.2231" />
    <text font-size="16.9785" style="fill: #000000;text-anchor:middle;font-family:sans-serif;font-style:normal;font-weight:700" x="150" y="203.741">
      <tspan x="150" y="203.741">Feature</tspan>
    </text>
  </g></a>
  <a xlink:href="activity.html"><g>
    <rect style="fill: #bfbfbf" x="340" y="180" width="140" height="43.2231" />
    <rect style="fill: none; fill-opacity:0; stroke-width: 2; stroke: #000000" x="340" y="180" width="140" height="43.2231" />
    <text font-size="16.9785" style="fill: #000000;text-anchor:middle;font-family:sans-serif;font-style:normal;font-weight:700" x="410" y="203.75">
      <tspan x="410" y="203.75">Activity</tspan>
    </text>
  </g></a>
  <a xlink:href="requestor.html"><g>
    <path style="fill: #add8e6" d="M 95.5556 20 C 111.111,20 188.889,20 204.444,20 C 220,20 220,20 220,26.6667 C 220,33.3333 220,46.6667 220,53.3333 C 220,60 220,60 204.444,60 C 188.889,60 111.111,60 95.5556,60 C 80,60 80,60 80,53.3333 C 80,46.6667 80,33.3333 80,26.6667 C 80,20 80,20 95.5556,20z" />
    <path style="fill: none; fill-opacity:0; stroke-width: 3; stroke: #000000" d="M 95.5556 20 C 111.111,20 188.889,20 204.444,20 C 220,20 220,20 220,26.6667 C 220,33.3333 220,46.6667 220,53.3333 C 220,60 220,60 204.444,60 C 188.889,60 111.111,60 95.5556,60 C 80,60 80,60 80,53.3333 C 80,46.6667 80,33.3333 80,26.6667 C 80,20 80,20 95.5556,20" />
    <path style="fill: none; fill-opacity:0; stroke-width: 0.3; stroke: #000000" d="M 95.5556 20 C 111.111,20 188.889,20 204.444,20 C 220,20 220,20 220,26.6667 C 220,33.3333 220,46.6667 220,53.3333 C 220,60 220,60 204.444,60 C 188.889,60 111.111,60 95.5556,60 C 80,60 80,60 80,53.3333 C 80,46.6667 80,33.3333 80,26.6667 C 80,20 80,20 95.5556,20" />
    <line style="fill: none; fill-opacity:0; stroke-width: 0.3; stroke: #000000" x1="95.5556" y1="60" x2="204.444" y2="60" />
    <line style="fill: none; fill-opacity:0; stroke-width: 0.3; stroke: #000000" x1="220" y1="26.6667" x2="220" y2="53.3333" />
    <line style="fill: none; fill-opacity:0; stroke-width: 0.3; stroke: #000000" x1="80" y1="26.6667" x2="80" y2="53.3333" />
    <line style="fill: none; fill-opacity:0; stroke-width: 0.3; stroke: #000000" x1="95.5556" y1="20" x2="204.444" y2="20" />
    <text font-size="16.9333" style="fill: #000000;text-anchor:middle;font-family:sans-serif;font-style:normal;font-weight:700" x="150" y="42.1167">
      <tspan x="150" y="42.1167">Requestor</tspan>
    </text>
  </g></a>
  <text font-size="12.8" style="fill: #000000;text-anchor:start;font-family:sans-serif;font-style:normal;font-weight:normal" x="280" y="180">
    <tspan x="280" y="180"></tspan>
  </text>
  <g>
    <line style="fill: none; fill-opacity:0; stroke-width: 2; stroke: #000000" x1="220" y1="201.602" x2="329" y2="201.611" />
    <polygon style="fill: #000000" points="329,206.611 339,201.612 329,196.611 " />
    <polygon style="fill: none; fill-opacity:0; stroke-width: 2; stroke: #000000" points="329,206.611 339,201.612 329,196.611 " />
  </g>
  <text font-size="16.9333" style="fill: #000000;text-anchor:start;font-family:sans-serif;font-style:italic;font-weight:normal" x="240" y="196.45">
    <tspan x="240" y="196.45">improves</tspan>
  </text>
  <g>
    <polyline style="fill: none; fill-opacity:0; stroke-width: 2; stroke: #000000" points="220,40 220,51 280,51 280,100 " />
    <polygon style="fill: #000000" points="275,110 280,120 285,110 " />
    <polygon style="fill: #000000" points="275,100 280,110 285,100 " />
  </g>
  <g>
    <rect style="fill: #ffffff" x="243.425" y="62.95" width="73.15" height="20.6" />
    <text font-size="16.9333" style="fill: #000000;text-anchor:middle;font-family:sans-serif;font-style:italic;font-weight:normal" x="280" y="80">
      <tspan x="280" y="80">requests</tspan>
    </text>
  </g>
  <g>
    <polyline style="fill: none; fill-opacity:0; stroke-width: 2; stroke: #000000" points="220,40 220,31 410,31 410,159.015 " />
    <polygon style="fill: #000000" points="405,169.015 410,179.015 415,169.015 " />
    <polygon style="fill: #000000" points="405,159.015 410,169.015 415,159.015 " />
  </g>
  <g>
    <rect style="fill: #ffffff" x="382.225" y="62.95" width="75.55" height="20.6" />
    <text font-size="16.9333" style="fill: #000000;text-anchor:middle;font-family:sans-serif;font-style:italic;font-weight:normal" x="420" y="80">
      <tspan x="420" y="80">oversees</tspan>
    </text>
  </g>
  <a xlink:href="expector.html"><g>
    <path style="fill: #add8e6" d="M 95.5556 320 C 111.111,320 188.889,320 204.444,320 C 220,320 220,320 220,326.667 C 220,333.333 220,346.667 220,353.333 C 220,360 220,360 204.444,360 C 188.889,360 111.111,360 95.5556,360 C 80,360 80,360 80,353.333 C 80,346.667 80,333.333 80,326.667 C 80,320 80,320 95.5556,320z" />
    <path style="fill: none; fill-opacity:0; stroke-width: 3; stroke: #000000" d="M 95.5556 320 C 111.111,320 188.889,320 204.444,320 C 220,320 220,320 220,326.667 C 220,333.333 220,346.667 220,353.333 C 220,360 220,360 204.444,360 C 188.889,360 111.111,360 95.5556,360 C 80,360 80,360 80,353.333 C 80,346.667 80,333.333 80,326.667 C 80,320 80,320 95.5556,320" />
    <path style="fill: none; fill-opacity:0; stroke-width: 0.3; stroke: #000000" d="M 95.5556 320 C 111.111,320 188.889,320 204.444,320 C 220,320 220,320 220,326.667 C 220,333.333 220,346.667 220,353.333 C 220,360 220,360 204.444,360 C 188.889,360 111.111,360 95.5556,360 C 80,360 80,360 80,353.333 C 80,346.667 80,333.333 80,326.667 C 80,320 80,320 95.5556,320" />
    <line style="fill: none; fill-opacity:0; stroke-width: 0.3; stroke: #000000" x1="95.5556" y1="360" x2="204.444" y2="360" />
    <line style="fill: none; fill-opacity:0; stroke-width: 0.3; stroke: #000000" x1="220" y1="326.667" x2="220" y2="353.333" />
    <line style="fill: none; fill-opacity:0; stroke-width: 0.3; stroke: #000000" x1="80" y1="326.667" x2="80" y2="353.333" />
    <line style="fill: none; fill-opacity:0; stroke-width: 0.3; stroke: #000000" x1="95.5556" y1="320" x2="204.444" y2="320" />
    <text font-size="16.9333" style="fill: #000000;text-anchor:middle;font-family:sans-serif;font-style:normal;font-weight:700" x="150" y="342.117">
      <tspan x="150" y="342.117">Expector</tspan>
    </text>
  </g></a>
  <g>
    <polyline style="fill: none; fill-opacity:0; stroke-width: 2; stroke: #000000" points="150,320 150,281 150,281 150,244.214 " />
    <polygon style="fill: #000000" points="155,234.214 150,224.214 145,234.214 " />
    <polygon style="fill: #000000" points="155,244.214 150,234.214 145,244.214 " />
  </g>
  <g>
    <rect style="fill: #ffffff" x="140.725" y="262.95" width="38.55" height="20.6" />
    <text font-size="16.9333" style="fill: #000000;text-anchor:middle;font-family:sans-serif;font-style:italic;font-weight:normal" x="160" y="280">
      <tspan x="160" y="280">uses</tspan>
    </text>
  </g>
  <g>
    <polyline style="fill: none; fill-opacity:0; stroke-width: 2; stroke: #000000" points="220,326.666 220,333 280,333 280,261.008 " />
    <polygon style="fill: #000000" points="285,251.008 280,241.008 275,251.008 " />
    <polygon style="fill: #000000" points="285,261.008 280,251.008 275,261.008 " />
  </g>
  <g>
    <polyline style="fill: none; fill-opacity:0; stroke-width: 2; stroke: #000000" points="220,340 220,349 375,349 375,243.224 " />
    <polygon style="fill: #000000" points="380,233.224 375,223.224 370,233.224 " />
    <polygon style="fill: #000000" points="380,243.224 375,233.224 370,243.224 " />
  </g>
  <g>
    <rect style="fill: #ffffff" x="247.4" y="282.95" width="65.2" height="20.6" />
    <text font-size="16.9333" style="fill: #000000;text-anchor:middle;font-family:sans-serif;font-style:italic;font-weight:normal" x="280" y="300">
      <tspan x="280" y="300">expects</tspan>
    </text>
  </g>
  <g>
    <rect style="fill: #ffffff" x="341.6" y="282.95" width="76.8" height="20.6" />
    <text font-size="16.9333" style="fill: #000000;text-anchor:middle;font-family:sans-serif;font-style:italic;font-weight:normal" x="380" y="300">
      <tspan x="380" y="300">performs</tspan>
    </text>
  </g>
  <a xlink:href="business.html"><g>
    <rect style="fill: #d8e5e5" x="200" y="480" width="140" height="43.2231" />
    <rect style="fill: none; fill-opacity:0; stroke-width: 2; stroke: #000000" x="200" y="480" width="140" height="43.2231" />
    <text font-size="16.9785" style="fill: #000000;text-anchor:middle;font-family:sans-serif;font-style:normal;font-weight:700" x="270" y="503.75">
      <tspan x="270" y="503.75">Business</tspan>
    </text>
  </g></a>
  <a xlink:href="value.html"><g>
    <rect style="fill: #d8e5e5" x="200" y="400" width="140" height="43.2231" />
    <rect style="fill: none; fill-opacity:0; stroke-width: 2; stroke: #000000" x="200" y="400" width="140" height="43.2231" />
    <text font-size="16.9785" style="fill: #000000;text-anchor:middle;font-family:sans-serif;font-style:normal;font-weight:700" x="270" y="423.75">
      <tspan x="270" y="423.75">Value</tspan>
    </text>
  </g></a>
  <text font-size="12.8" style="fill: #000000;text-anchor:start;font-family:sans-serif;font-style:normal;font-weight:normal" x="547.7" y="54.55">
    <tspan x="547.7" y="54.55"></tspan>
  </text>
  <text font-size="16.9333" style="fill: #000000;text-anchor:start;font-family:sans-serif;font-style:italic;font-weight:normal" x="412" y="489.45">
    <tspan x="412" y="489.45">for a</tspan>
  </text>
  <text font-size="16.9333" style="fill: #000000;text-anchor:start;font-family:sans-serif;font-style:italic;font-weight:normal" x="360" y="415.283">
    <tspan x="360" y="415.283">produces / </tspan>
    <tspan x="360" y="436.45">conserves</tspan>
  </text>
  <g>
    <polyline style="fill: none; fill-opacity:0; stroke-width: 2; stroke: #000000" points="385,223.224 460,223.224 460,501.612 352.236,501.612 " />
    <polygon style="fill: #ffffff" points="352.236,496.612 342.236,501.612 352.236,506.612 " />
    <polygon style="fill: none; fill-opacity:0; stroke-width: 2; stroke: #000000" points="352.236,496.612 342.236,501.612 352.236,506.612 " />
  </g>
  <g>
    <polyline style="fill: none; fill-opacity:0; stroke-width: 2; stroke: #000000" points="385,223.224 460,223.224 460,421.612 351.995,421.612 " />
    <polygon style="fill: #000000" points="351.995,416.612 341.995,421.612 351.995,426.612 " />
    <polygon style="fill: none; fill-opacity:0; stroke-width: 2; stroke: #000000" points="351.995,416.612 341.995,421.612 351.995,426.612 " />
  </g>
</svg>
