<svg width="12cm" height="18cm" viewbox="10 8 350 600" xmlns="http://www.w3.org/2000/svg" xmlns:xlink="http://www.w3.org/1999/xlink"><a xlink:href="../topics/governor.md"><g><rect style="fill: #add8e6" x="10" y="10" width="200" height="44"/>
<rect style="fill: none; fill-opacity: 0; stroke-width: 2; stroke: #000000" x="10" y="10" width="200" height="44"/>
<text style="fill: #000000; text-anchor: middle; font-family: sans-serif; font-style: normal; font-weight: 700" font-size="17" x="110" y="37"><tspan x="110" y="37">governor</tspan>
</text>
</g>
</a>
<a xlink:href="../topics/business.md"><g><rect style="fill: #bfbfbf" x="230" y="100" width="200" height="44"/>
<rect style="fill: none; fill-opacity: 0; stroke-width: 2; stroke: #000000" x="230" y="100" width="200" height="44"/>
<text style="fill: #000000; text-anchor: middle; font-family: sans-serif; font-style: normal; font-weight: 700" font-size="17" x="330" y="127"><tspan x="330" y="127">business</tspan>
</text>
</g>
</a>
<a xlink:href="../topics/source.md"><g><rect style="fill: #bfbfbf" x="230" y="200" width="200" height="44"/>
<rect style="fill: none; fill-opacity: 0; stroke-width: 2; stroke: #000000" x="230" y="200" width="200" height="44"/>
<text style="fill: #000000; text-anchor: middle; font-family: sans-serif; font-style: normal; font-weight: 700" font-size="17" x="330" y="227"><tspan x="330" y="227">source</tspan>
</text>
</g>
</a>
<a xlink:href="../topics/vision.md"><g><rect style="fill: #bfbfbf" x="230" y="300" width="200" height="44"/>
<rect style="fill: none; fill-opacity: 0; stroke-width: 2; stroke: #000000" x="230" y="300" width="200" height="44"/>
<text style="fill: #000000; text-anchor: middle; font-family: sans-serif; font-style: normal; font-weight: 700" font-size="17" x="330" y="327"><tspan x="330" y="327">vision</tspan>
</text>
</g>
</a>
<a xlink:href="../topics/mission.md"><g><rect style="fill: #bfbfbf" x="230" y="400" width="200" height="44"/>
<rect style="fill: none; fill-opacity: 0; stroke-width: 2; stroke: #000000" x="230" y="400" width="200" height="44"/>
<text style="fill: #000000; text-anchor: middle; font-family: sans-serif; font-style: normal; font-weight: 700" font-size="17" x="330" y="427"><tspan x="330" y="427">mission</tspan>
</text>
</g>
</a>
<a xlink:href="../topics/value.md"><g><rect style="fill: #bfbfbf" x="230" y="500" width="200" height="44"/>
<rect style="fill: none; fill-opacity: 0; stroke-width: 2; stroke: #000000" x="230" y="500" width="200" height="44"/>
<text style="fill: #000000; text-anchor: middle; font-family: sans-serif; font-style: normal; font-weight: 700" font-size="17" x="330" y="527"><tspan x="330" y="527">value</tspan>
</text>
</g>
</a>
<g><polyline style="fill: none; fill-opacity: 0; stroke-width: 2; stroke: #000000" points="230,122 110,122 110,54"/>
<polygon points="230,122 215,132 215,112" style="fill: #000000"/>
<g><rect style="fill: #ffffff" x="140" y="109" width="60" height="26"/>
<text style="fill: #000000; text-anchor: middle; font-family: sans-serif; font-style: italic; font-weight: normal" font-size="18" x="0" y="0"><tspan x="170" y="126">serves</tspan>
</text>
</g>
</g>
<g><polyline style="fill: none; fill-opacity: 0; stroke-width: 2; stroke: #000000" points="215,222 110,222 110,54"/>
<polygon points="230,222 215,232 215,212" style="fill: none; fill-opacity: 0; stroke-width: 2; stroke: #000000"/>
<g><rect style="fill: #ffffff" x="160" y="209" width="20" height="26"/>
<text style="fill: #000000; text-anchor: middle; font-family: sans-serif; font-style: italic; font-weight: normal" font-size="18" x="0" y="0"><tspan x="170" y="226">as</tspan>
</text>
</g>
</g>
<g><polyline style="fill: none; fill-opacity: 0; stroke-width: 2; stroke: #000000" points="215,322 110,322 110,54"/>
<polygon points="230,322 215,332 215,312" style="fill: none; fill-opacity: 0; stroke-width: 2; stroke: #000000"/>
<g><rect style="fill: #ffffff" x="160" y="309" width="20" height="26"/>
<text style="fill: #000000; text-anchor: middle; font-family: sans-serif; font-style: italic; font-weight: normal" font-size="18" x="0" y="0"><tspan x="170" y="326">of</tspan>
</text>
</g>
</g>
<g><polyline style="fill: none; fill-opacity: 0; stroke-width: 2; stroke: #000000" points="215,422 110,422 110,54"/>
<polygon points="230,422 215,432 215,412" style="fill: none; fill-opacity: 0; stroke-width: 2; stroke: #000000"/>
<g><rect style="fill: #ffffff" x="160" y="409" width="20" height="26"/>
<text style="fill: #000000; text-anchor: middle; font-family: sans-serif; font-style: italic; font-weight: normal" font-size="18" x="0" y="0"><tspan x="170" y="426">of</tspan>
</text>
</g>
</g>
<g><polyline style="fill: none; fill-opacity: 0; stroke-width: 2; stroke: #000000" points="200,522 110,522 110,54"/>
<polygon points="230,522 215,532 215,512" style="fill: none; fill-opacity: 0; stroke-width: 2; stroke: #000000"/>
<polygon points="215,522 200,532 200,512" style="fill: none; fill-opacity: 0; stroke-width: 2; stroke: #000000"/>
<g><rect style="fill: #ffffff" x="150" y="509" width="20" height="26"/>
<text style="fill: #000000; text-anchor: middle; font-family: sans-serif; font-style: italic; font-weight: normal" font-size="18" x="0" y="0"><tspan x="160" y="526">of</tspan>
</text>
</g>
</g>
</svg>
