<svg width="18cm" height="15cm" viewbox="38 38 603 503" xmlns="http://www.w3.org/2000/svg" xmlns:xlink="http://www.w3.org/1999/xlink">
  <a xlink:href="policy.html"><g>
    <rect style="fill: #e6e6fa" x="40" y="140" width="500" height="120" />
    <rect style="fill: none; fill-opacity:0; stroke-width: 2; stroke: #000000" x="40" y="140" width="500" height="120" />
    <text font-size="16.9333" style="fill: #000000;text-anchor:middle;font-family:sans-serif;font-style:normal;font-weight:700" x="290" y="202.117">
      <tspan x="290" y="202.117"></tspan>
    </text>
  </g></a>
  <a xlink:href="policy.html"><g>
    <rect style="fill: none; fill-opacity:0; stroke-width: 2; stroke: #e6e6fa" x="200" y="160" width="158.15" height="40" />
    <text font-size="19.7556" style="fill: #000000;text-anchor:middle;font-family:sans-serif;font-style:normal;font-weight:700" x="279.075" y="182.453">
      <tspan x="279.075" y="182.453">Policy</tspan>
    </text>
  </g></a>
  <a xlink:href="vision.html"><g>
    <rect style="fill: #bfbfbf" x="60" y="199.991" width="140" height="43.2231" />
    <rect style="fill: none; fill-opacity:0; stroke-width: 2; stroke: #000000" x="60" y="199.991" width="140" height="43.2231" />
    <text font-size="16.9785" style="fill: #000000;text-anchor:middle;font-family:sans-serif;font-style:normal;font-weight:700" x="130" y="223.741">
      <tspan x="130" y="223.741">Vision</tspan>
    </text>
  </g></a>
  <a xlink:href="governor.html"><g>
    <path style="fill: #add8e6" d="M 75.5556 40 C 91.1111,40 168.889,40 184.444,40 C 200,40 200,40 200,46.6667 C 200,53.3333 200,66.6667 200,73.3333 C 200,80 200,80 184.444,80 C 168.889,80 91.1111,80 75.5556,80 C 60,80 60,80 60,73.3333 C 60,66.6667 60,53.3333 60,46.6667 C 60,40 60,40 75.5556,40z" />
    <path style="fill: none; fill-opacity:0; stroke-width: 3; stroke: #000000" d="M 75.5556 40 C 91.1111,40 168.889,40 184.444,40 C 200,40 200,40 200,46.6667 C 200,53.3333 200,66.6667 200,73.3333 C 200,80 200,80 184.444,80 C 168.889,80 91.1111,80 75.5556,80 C 60,80 60,80 60,73.3333 C 60,66.6667 60,53.3333 60,46.6667 C 60,40 60,40 75.5556,40" />
    <path style="fill: none; fill-opacity:0; stroke-width: 0.3; stroke: #000000" d="M 75.5556 40 C 91.1111,40 168.889,40 184.444,40 C 200,40 200,40 200,46.6667 C 200,53.3333 200,66.6667 200,73.3333 C 200,80 200,80 184.444,80 C 168.889,80 91.1111,80 75.5556,80 C 60,80 60,80 60,73.3333 C 60,66.6667 60,53.3333 60,46.6667 C 60,40 60,40 75.5556,40" />
    <line style="fill: none; fill-opacity:0; stroke-width: 0.3; stroke: #000000" x1="75.5556" y1="80" x2="184.444" y2="80" />
    <line style="fill: none; fill-opacity:0; stroke-width: 0.3; stroke: #000000" x1="200" y1="46.6667" x2="200" y2="73.3333" />
    <line style="fill: none; fill-opacity:0; stroke-width: 0.3; stroke: #000000" x1="60" y1="46.6667" x2="60" y2="73.3333" />
    <line style="fill: none; fill-opacity:0; stroke-width: 0.3; stroke: #000000" x1="75.5556" y1="40" x2="184.444" y2="40" />
    <text font-size="16.9333" style="fill: #000000;text-anchor:middle;font-family:sans-serif;font-style:normal;font-weight:700" x="130" y="62.1167">
      <tspan x="130" y="62.1167">Governor</tspan>
    </text>
  </g></a>
  <text font-size="12.8" style="fill: #000000;text-anchor:start;font-family:sans-serif;font-style:normal;font-weight:normal" x="290" y="200">
    <tspan x="290" y="200"></tspan>
  </text>
  <g>
    <polyline style="fill: none; fill-opacity:0; stroke-width: 2; stroke: #000000" points="201,67 201,68 290,68 290,120 " />
    <polygon style="fill: #000000" points="285,130 290,140 295,130 " />
    <polygon style="fill: #000000" points="285,120 290,130 295,120 " />
  </g>
  <g>
    <rect style="fill: #ffffff" x="243.85" y="82.95" width="72.3" height="20.6" />
    <text font-size="16.9333" style="fill: #000000;text-anchor:middle;font-family:sans-serif;font-style:italic;font-weight:normal" x="280" y="100">
      <tspan x="280" y="100">provides</tspan>
    </text>
  </g>
  <g>
    <polyline style="fill: none; fill-opacity:0; stroke-width: 2; stroke: #000000" points="200,52 200,53 570,53 570,309 " />
    <polygon style="fill: #000000" points="565,309 570,319 575,309 " />
    <polygon style="fill: none; fill-opacity:0; stroke-width: 2; stroke: #000000" points="565,309 570,319 575,309 " />
  </g>
  <g>
    <rect style="fill: #ffffff" x="546.1" y="82.95" width="67.8" height="20.6" />
    <text font-size="16.9333" style="fill: #000000;text-anchor:middle;font-family:sans-serif;font-style:italic;font-weight:normal" x="580" y="100">
      <tspan x="580" y="100">governs</tspan>
    </text>
  </g>
  <a xlink:href="business.html"><g>
    <rect style="fill: #d8e5e5" x="500" y="320" width="140" height="43.2231" />
    <rect style="fill: none; fill-opacity:0; stroke-width: 2; stroke: #000000" x="500" y="320" width="140" height="43.2231" />
    <text font-size="16.9785" style="fill: #000000;text-anchor:middle;font-family:sans-serif;font-style:normal;font-weight:700" x="570" y="343.75">
      <tspan x="570" y="343.75">Business</tspan>
    </text>
  </g></a>
  <a xlink:href="mission.html"><g>
    <rect style="fill: #bfbfbf" x="220" y="200" width="140" height="43.2231" />
    <rect style="fill: none; fill-opacity:0; stroke-width: 2; stroke: #000000" x="220" y="200" width="140" height="43.2231" />
    <text font-size="16.9785" style="fill: #000000;text-anchor:middle;font-family:sans-serif;font-style:normal;font-weight:700" x="290" y="223.75">
      <tspan x="290" y="223.75">Mission</tspan>
    </text>
  </g></a>
  <a xlink:href="value.html"><g>
    <rect style="fill: #bfbfbf" x="380" y="200" width="140" height="43.2231" />
    <rect style="fill: none; fill-opacity:0; stroke-width: 2; stroke: #000000" x="380" y="200" width="140" height="43.2231" />
    <text font-size="16.9785" style="fill: #000000;text-anchor:middle;font-family:sans-serif;font-style:normal;font-weight:700" x="450" y="223.75">
      <tspan x="450" y="223.75">Values</tspan>
    </text>
  </g></a>
  <g>
    <polyline style="fill: none; fill-opacity:0; stroke-width: 2; stroke: #000000" points="290,261.007 290,290.504 130,290.504 130,300 " />
    <polygon style="fill: #000000" points="125,310 130,320 135,310 " />
    <polygon style="fill: #000000" points="125,300 130,310 135,300 " />
  </g>
  <g>
    <rect style="fill: #ffffff" x="198.525" y="278.95" width="56.95" height="20.6" />
    <text font-size="16.9333" style="fill: #000000;text-anchor:middle;font-family:sans-serif;font-style:italic;font-weight:normal" x="227" y="296">
      <tspan x="227" y="296">directs</tspan>
    </text>
  </g>
  <a xlink:href="improvement.html"><g>
    <rect style="fill: #e6e6fa" x="40" y="420" width="440" height="120" />
    <rect style="fill: none; fill-opacity:0; stroke-width: 2; stroke: #000000" x="40" y="420" width="440" height="120" />
    <text font-size="16.9333" style="fill: #000000;text-anchor:middle;font-family:sans-serif;font-style:normal;font-weight:700" x="260" y="482.117">
      <tspan x="260" y="482.117"></tspan>
    </text>
  </g></a>
  <a xlink:href="improvement.html"><g>
    <rect style="fill: none; fill-opacity:0; stroke-width: 2; stroke: #e6e6fa" x="180" y="440" width="158.15" height="40" />
    <text font-size="19.7556" style="fill: #000000;text-anchor:middle;font-family:sans-serif;font-style:normal;font-weight:700" x="259.075" y="462.453">
      <tspan x="259.075" y="462.453">Improvement</tspan>
    </text>
  </g></a>
  <a xlink:href="feature.html"><g>
    <rect style="fill: #bfbfbf" x="60" y="479.991" width="140" height="43.2231" />
    <rect style="fill: none; fill-opacity:0; stroke-width: 2; stroke: #000000" x="60" y="479.991" width="140" height="43.2231" />
    <text font-size="16.9785" style="fill: #000000;text-anchor:middle;font-family:sans-serif;font-style:normal;font-weight:700" x="130" y="503.741">
      <tspan x="130" y="503.741">Feature</tspan>
    </text>
  </g></a>
  <a xlink:href="activity.html"><g>
    <rect style="fill: #bfbfbf" x="320" y="480" width="140" height="43.2231" />
    <rect style="fill: none; fill-opacity:0; stroke-width: 2; stroke: #000000" x="320" y="480" width="140" height="43.2231" />
    <text font-size="16.9785" style="fill: #000000;text-anchor:middle;font-family:sans-serif;font-style:normal;font-weight:700" x="390" y="503.75">
      <tspan x="390" y="503.75">Activity</tspan>
    </text>
  </g></a>
  <a xlink:href="requestor.html"><g>
    <path style="fill: #add8e6" d="M 75.5556 320 C 91.1111,320 168.889,320 184.444,320 C 200,320 200,320 200,326.667 C 200,333.333 200,346.667 200,353.333 C 200,360 200,360 184.444,360 C 168.889,360 91.1111,360 75.5556,360 C 60,360 60,360 60,353.333 C 60,346.667 60,333.333 60,326.667 C 60,320 60,320 75.5556,320z" />
    <path style="fill: none; fill-opacity:0; stroke-width: 3; stroke: #000000" d="M 75.5556 320 C 91.1111,320 168.889,320 184.444,320 C 200,320 200,320 200,326.667 C 200,333.333 200,346.667 200,353.333 C 200,360 200,360 184.444,360 C 168.889,360 91.1111,360 75.5556,360 C 60,360 60,360 60,353.333 C 60,346.667 60,333.333 60,326.667 C 60,320 60,320 75.5556,320" />
    <path style="fill: none; fill-opacity:0; stroke-width: 0.3; stroke: #000000" d="M 75.5556 320 C 91.1111,320 168.889,320 184.444,320 C 200,320 200,320 200,326.667 C 200,333.333 200,346.667 200,353.333 C 200,360 200,360 184.444,360 C 168.889,360 91.1111,360 75.5556,360 C 60,360 60,360 60,353.333 C 60,346.667 60,333.333 60,326.667 C 60,320 60,320 75.5556,320" />
    <line style="fill: none; fill-opacity:0; stroke-width: 0.3; stroke: #000000" x1="75.5556" y1="360" x2="184.444" y2="360" />
    <line style="fill: none; fill-opacity:0; stroke-width: 0.3; stroke: #000000" x1="200" y1="326.667" x2="200" y2="353.333" />
    <line style="fill: none; fill-opacity:0; stroke-width: 0.3; stroke: #000000" x1="60" y1="326.667" x2="60" y2="353.333" />
    <line style="fill: none; fill-opacity:0; stroke-width: 0.3; stroke: #000000" x1="75.5556" y1="320" x2="184.444" y2="320" />
    <text font-size="16.9333" style="fill: #000000;text-anchor:middle;font-family:sans-serif;font-style:normal;font-weight:700" x="130" y="342.117">
      <tspan x="130" y="342.117">Requestor</tspan>
    </text>
  </g></a>
  <text font-size="12.8" style="fill: #000000;text-anchor:start;font-family:sans-serif;font-style:normal;font-weight:normal" x="260" y="480">
    <tspan x="260" y="480"></tspan>
  </text>
  <g>
    <line style="fill: none; fill-opacity:0; stroke-width: 2; stroke: #000000" x1="200" y1="501.602" x2="309" y2="501.611" />
    <polygon style="fill: #000000" points="309,506.611 319,501.611 309,496.611 " />
    <polygon style="fill: none; fill-opacity:0; stroke-width: 2; stroke: #000000" points="309,506.611 319,501.611 309,496.611 " />
  </g>
  <text font-size="16.9333" style="fill: #000000;text-anchor:start;font-family:sans-serif;font-style:italic;font-weight:normal" x="220" y="496.45">
    <tspan x="220" y="496.45">improves</tspan>
  </text>
  <g>
    <polyline style="fill: none; fill-opacity:0; stroke-width: 2; stroke: #000000" points="200,340 200,351 260,351 260,400 " />
    <polygon style="fill: #000000" points="255,410 260,420 265,410 " />
    <polygon style="fill: #000000" points="255,400 260,410 265,400 " />
  </g>
  <g>
    <rect style="fill: #ffffff" x="223.425" y="362.95" width="73.15" height="20.6" />
    <text font-size="16.9333" style="fill: #000000;text-anchor:middle;font-family:sans-serif;font-style:italic;font-weight:normal" x="260" y="380">
      <tspan x="260" y="380">requests</tspan>
    </text>
  </g>
  <g>
    <polyline style="fill: none; fill-opacity:0; stroke-width: 2; stroke: #000000" points="200,340 200,331 390,331 390,459.015 " />
    <polygon style="fill: #000000" points="385,469.015 390,479.015 395,469.015 " />
    <polygon style="fill: #000000" points="385,459.015 390,469.015 395,459.015 " />
  </g>
  <g>
    <rect style="fill: #ffffff" x="362.225" y="362.95" width="75.55" height="20.6" />
    <text font-size="16.9333" style="fill: #000000;text-anchor:middle;font-family:sans-serif;font-style:italic;font-weight:normal" x="400" y="380">
      <tspan x="400" y="380">oversees</tspan>
    </text>
  </g>
  <text font-size="12.8" style="fill: #000000;text-anchor:start;font-family:sans-serif;font-style:normal;font-weight:normal" x="561.9" y="399.35">
    <tspan x="561.9" y="399.35"></tspan>
  </text>
</svg>
